PathFileType	4	(X/Y/Z)	s01c0402.trc
DataRate	CameraRate	NumFrames	NumMarkers	Units	OrigDataRate	OrigDataStartFrame	OrigNumFrames
200	200	4	48	mm	200	1500	2000
Frame#	Time	racr			lacr			c7			jug			rlel			rdr			llel			ldr			s2			lic			ric			lasi			rasi			rpsi			lpsi			rgt			lgt			rth1			rth2			rth3			rth4			rlfc			rsh1			rsh2			rsh3			rsh4			rlmal			rmmal			rcal			rtoe			rmt5			lth1			lth2			lth4			lth3			llfc			lsh1			lsh2			lsh3			lsh4			llmal			lmmal			lcal			ltoe			lmt5			SBIKE			LBIKE			RBIKE			
		X1	Y1	Z1	X2	Y2	Z2	X3	Y3	Z3	X4	Y4	Z4	X5	Y5	Z5	X6	Y6	Z6	X7	Y7	Z7	X8	Y8	Z8	X9	Y9	Z9	X10	Y10	Z10	X11	Y11	Z11	X12	Y12	Z12	X13	Y13	Z13	X14	Y14	Z14	X15	Y15	Z15	X16	Y16	Z16	X17	Y17	Z17	X18	Y18	Z18	X19	Y19	Z19	X20	Y20	Z20	X21	Y21	Z21	X22	Y22	Z22	X23	Y23	Z23	X24	Y24	Z24	X25	Y25	Z25	X26	Y26	Z26	X27	Y27	Z27	X28	Y28	Z28	X29	Y29	Z29	X30	Y30	Z30	X31	Y31	Z31	X32	Y32	Z32	X33	Y33	Z33	X34	Y34	Z34	X35	Y35	Z35	X36	Y36	Z36	X37	Y37	Z37	X38	Y38	Z38	X39	Y39	Z39	X40	Y40	Z40	X41	Y41	Z41	X42	Y42	Z42	X43	Y43	Z43	X44	Y44	Z44	X45	Y45	Z45	X46	Y46	Z46	X47	Y47	Z47	X48	Y48	Z48	
1500	7.5000	730.946411	1279.218750	-108.772720	737.053833	1222.150513	-483.128967	740.576233	1374.471191	-303.298218	708.188354	1210.065186	-286.689728	572.760132	1077.576538	44.013992	702.620667	889.949463	-27.000378	536.208862	1022.983093	-586.962036	682.222168	885.429749	-459.266846	196.197159	1222.562622	-256.702423	349.620270	1208.432983	-448.661438	360.955292	1210.911011	-114.450447	352.392639	1153.312744	-415.989197	378.778534	1158.538574	-140.432312	230.891617	1259.746216	-208.799500	223.930969	1260.278442	-314.460815	302.184265	1096.588989	-76.649796	292.394806	1078.268555	-453.226624	381.430359	989.172302	-67.255280	433.175476	923.870239	-71.381500	483.479980	849.532593	-81.934807	474.588837	954.848145	-93.087990	503.501099	743.597290	-104.601227	401.547211	684.396362	-70.596603	336.751343	630.288025	-73.988411	263.759033	579.668518	-80.695946	367.983643	590.715454	-107.437767	163.979828	524.943665	-94.444244	202.555756	467.993713	-121.224968	135.215179	554.774597	-152.598938	168.274780	285.080536	-136.507996	119.222832	381.959656	-69.447754	346.064606	959.318115	-450.708801	404.701019	901.903564	-447.881134	449.031006	938.071838	-440.344696	466.870697	836.515137	-425.577545	519.262451	730.299988	-403.999390	441.149841	648.252258	-438.762268	406.659210	568.472961	-434.975830	370.648987	491.343872	-424.611328	458.864410	548.226929	-408.673065	314.137451	376.940063	-414.523315	349.181610	382.108917	-333.494263	251.864380	360.272064	-375.283783	512.028259	252.066498	-370.598816	408.742432	261.373688	-441.195923	-223.761505	893.268066	-253.244415	-12.535732	84.552696	-456.159454	-21.571201	81.150238	-56.055264	
1501	7.5050	730.930969	1279.726440	-106.970016	737.890686	1221.972778	-481.407166	740.767700	1374.594360	-301.605072	708.973816	1210.188965	-285.034241	572.878845	1077.410034	44.893307	702.469055	889.880615	-27.199312	536.409790	1023.733948	-586.001038	682.133301	885.461182	-458.820404	196.168762	1220.980713	-257.497681	349.820953	1206.152222	-448.656616	360.491333	1210.747070	-114.840141	352.744141	1151.550415	-416.404266	378.402435	1158.373779	-140.761841	230.315201	1258.801636	-209.825851	223.979538	1258.630005	-315.483856	302.299957	1097.136353	-76.537712	291.095154	1075.036743	-452.886444	384.153564	991.662292	-66.495247	438.083282	927.871643	-70.352592	490.697449	855.013062	-81.639053	478.595398	959.783691	-93.224625	512.137024	749.575989	-103.635620	408.624847	690.649292	-69.484283	343.054688	637.458252	-73.268692	269.492035	587.785156	-80.661240	373.363647	597.605042	-107.168472	168.384705	534.674500	-94.210701	206.961273	477.977783	-121.224678	139.188873	564.744690	-152.526871	173.084122	295.223022	-136.463257	123.757812	391.925720	-69.370880	341.971771	954.923523	-450.029083	400.076996	897.145447	-447.385193	444.367584	931.161377	-440.243561	459.623260	829.277527	-424.589020	510.980835	723.067261	-403.982178	433.919037	640.224854	-439.277222	400.422821	560.193298	-435.134277	365.372192	482.689484	-424.724548	452.789795	540.675049	-408.703613	309.881287	367.412354	-414.263550	347.394318	374.722992	-334.784271	248.140945	351.628601	-375.426636	507.271301	240.823273	-370.026611	404.486450	251.466278	-441.165466	-223.752396	893.247192	-253.184830	-12.517860	84.538795	-456.154877	-21.574862	81.112465	-56.044361	
1502	7.5100	730.931335	1280.265747	-104.850281	738.703613	1221.881714	-479.652710	740.897400	1374.759766	-299.745361	709.814514	1210.375366	-283.282166	572.834290	1077.099487	45.741203	702.351013	889.796509	-27.543102	536.653931	1024.786499	-585.169128	682.066162	885.469055	-458.351349	195.930695	1219.634888	-258.563141	350.026123	1203.762695	-448.776764	359.945160	1210.687744	-115.286209	353.138092	1149.798706	-416.820801	378.038422	1158.328491	-141.075729	229.774307	1257.844482	-210.921356	224.064316	1256.898682	-316.550903	302.437592	1097.688965	-76.365753	289.547272	1071.852783	-452.447052	387.097107	994.498352	-65.792664	442.952454	932.291016	-69.343979	497.637878	860.900818	-80.737923	482.365448	965.166809	-93.003616	520.342224	755.554260	-102.573273	415.645020	697.096436	-68.416908	349.414886	644.847534	-72.415588	275.092316	596.413757	-80.247894	378.980011	605.140320	-106.562843	172.373871	544.891785	-94.216354	211.536148	488.111816	-121.424606	143.063660	574.741638	-152.496933	178.951523	305.514954	-136.470108	128.907196	401.873077	-69.282494	337.607452	950.735779	-449.332642	395.277893	892.523193	-446.981995	439.328674	924.288757	-440.665100	452.028778	822.181519	-423.727997	502.544128	716.042358	-403.811279	426.553864	632.329102	-439.936707	394.050476	551.922729	-435.383057	359.754974	474.024475	-424.947601	446.383423	533.076965	-408.636383	305.215576	358.419189	-414.311371	344.543701	367.458588	-336.003754	243.964691	343.385498	-375.562836	502.282715	230.313034	-369.877472	399.632904	241.732498	-441.100708	-223.741180	893.238586	-253.144791	-12.524000	84.535378	-456.145630	-21.571272	81.117760	-56.025803	
1503	7.5150	730.788635	1281.115356	-102.728806	739.502563	1221.941406	-477.843140	741.064697	1374.996582	-297.749237	710.634155	1210.834229	-281.310150	572.566223	1076.700439	46.668060	702.191223	889.712158	-27.926182	537.103271	1025.787598	-584.244507	681.984436	885.535583	-457.881378	195.677368	1218.364868	-259.823273	350.258789	1201.594604	-448.882538	359.472778	1210.640381	-115.572823	353.534851	1148.051758	-417.155273	377.698242	1158.231445	-141.214233	229.280350	1256.901611	-212.104095	224.211197	1255.260132	-317.678741	302.550262	1098.345459	-76.241402	288.025055	1068.902710	-452.013275	389.966919	997.700562	-65.047386	447.657074	936.948792	-68.301987	504.253693	867.117737	-79.540962	485.938110	970.761475	-92.476067	527.926331	761.517578	-101.305473	422.841919	703.669617	-67.190292	355.827911	652.440613	-71.508377	280.695404	605.326050	-79.745621	384.653473	612.669189	-106.145699	176.606110	555.224304	-94.240486	216.344177	498.287506	-121.842133	146.657913	584.569641	-152.238037	185.699890	315.854889	-136.403183	134.485687	411.578278	-69.271057	333.139343	946.850403	-448.812347	390.335815	888.074097	-446.677582	434.145264	917.661133	-440.997070	444.124908	815.368530	-423.000336	493.858063	709.090271	-403.846039	419.290314	624.599060	-440.785156	387.334137	543.665833	-435.731628	353.829865	465.466278	-425.256409	439.670776	525.463257	-408.471375	300.264191	349.787445	-414.438232	340.710114	360.347168	-337.152435	239.338150	335.564575	-375.692230	496.655060	220.115860	-369.645813	394.197571	232.385651	-441.086670	-223.750320	893.251709	-253.146179	-12.528062	84.554413	-456.098877	-21.552601	81.094124	-55.996399	
